<?xml version="1.0" standalone="no"?>
<!DOCTYPE svg PUBLIC "-//W3C//DTD SVG 20010904//EN"
 "http://www.w3.org/TR/2001/REC-SVG-20010904/DTD/svg10.dtd">
<svg version="1.0" xmlns="http://www.w3.org/2000/svg"
 width="200.000000pt" height="200.000000pt" viewBox="0 0 200.000000 200.000000"
 preserveAspectRatio="xMidYMid meet">

<g transform="translate(0.000000,200.000000) scale(0.100000,-0.100000)"
fill="#000000" stroke="none">
<path d="M888 1791 c-31 -10 -72 -28 -91 -40 -52 -32 -116 -106 -145 -169 -24
-50 -27 -70 -27 -157 0 -89 3 -107 28 -161 36 -77 113 -154 192 -191 53 -25
71 -28 160 -28 93 0 105 2 166 32 174 86 257 276 200 460 -64 205 -279 319
-483 254z m246 -42 c114 -42 207 -165 222 -291 l6 -58 -106 0 -106 0 0 39 c0
22 -5 41 -11 43 -9 3 -9 9 0 25 6 12 11 38 11 59 l0 37 -44 -5 c-35 -4 -43 -2
-39 8 10 25 -7 83 -34 114 -21 26 -28 29 -41 18 -25 -21 -53 -95 -46 -121 5
-24 4 -25 -40 -20 -46 6 -46 5 -46 -25 0 -17 5 -43 12 -57 9 -21 9 -28 -1 -35
-9 -5 -12 -21 -9 -44 l4 -36 -109 0 -110 0 7 57 c28 236 258 376 480 292z
m-109 -79 c17 -32 12 -72 -10 -90 -28 -23 -47 58 -25 101 14 25 17 24 35 -11z
m-86 -115 c26 -13 60 -69 49 -80 -3 -3 -19 0 -37 6 -23 8 -38 22 -47 45 -8 18
-14 36 -14 39 0 9 20 5 49 -10z m176 -12 c-9 -37 -20 -49 -56 -62 -27 -9 -29
-8 -29 14 0 25 51 75 77 75 12 0 14 -6 8 -27z m-181 -103 c14 -5 32 -23 41
-39 20 -39 19 -41 -8 -41 -26 0 -61 33 -72 68 -7 24 1 27 39 12z m186 0 c0
-26 -33 -70 -56 -76 -31 -8 -38 -1 -30 30 9 35 86 76 86 46z m-370 -87 c0 -5
-14 -26 -30 -47 l-30 -39 -15 36 c-22 53 -20 57 30 57 25 0 45 -3 45 -7z m80
3 c0 -4 -71 -160 -76 -165 -6 -7 -34 21 -34 33 0 17 88 136 100 136 6 0 10 -2
10 -4z m419 -66 c34 -47 42 -66 34 -78 -19 -31 -30 -22 -63 50 -45 102 -45
101 -29 96 8 -2 34 -33 58 -68z m94 64 c6 -6 -11 -64 -23 -77 -6 -7 -60 63
-60 78 0 7 75 6 83 -1z m-389 -46 c13 -13 27 -33 31 -45 5 -19 2 -23 -14 -23
-25 0 -67 38 -76 68 -5 18 -2 22 14 22 11 0 31 -10 45 -22z m166 11 c0 -16
-21 -53 -39 -66 -48 -37 -70 9 -26 52 24 25 65 34 65 14z m-250 -129 c-18 -80
-20 -83 -57 -60 l-32 19 37 80 37 81 14 -33 c11 -26 11 -42 1 -87z m350 -35
c0 -14 -57 -48 -63 -38 -3 5 -10 34 -17 66 -9 47 -9 65 1 90 l13 31 33 -69
c18 -38 33 -74 33 -80z m-240 -22 c0 -56 -2 -64 -17 -60 -10 3 -30 8 -46 11
-29 7 -29 4 -6 98 9 36 10 36 39 26 29 -10 30 -12 30 -75z m124 22 c8 -32 13
-61 11 -63 -2 -3 -22 -8 -45 -12 l-40 -7 0 63 c0 59 1 63 28 72 15 5 28 9 29
8 0 0 8 -28 17 -61z"/>
<path d="M800 835 c0 -161 1 -165 21 -165 20 0 21 3 18 129 -2 71 -1 127 2
125 3 -2 16 -51 29 -109 15 -67 28 -105 36 -105 14 0 15 1 46 130 l23 95 3
-132 c2 -125 4 -133 22 -133 19 0 20 7 20 166 l0 165 -32 -3 c-34 -3 -32 2
-75 -188 -6 -29 -5 -33 -33 93 -21 96 -22 97 -51 97 l-29 0 0 -165z"/>
<path d="M1060 921 c0 -5 14 -65 30 -134 17 -69 30 -131 30 -136 0 -6 -13 -11
-30 -11 -25 0 -30 -4 -30 -24 0 -30 14 -40 46 -32 34 9 49 47 79 200 30 154
30 146 6 146 -20 0 -25 -15 -37 -118 -8 -75 -19 -87 -27 -29 -15 106 -28 147
-48 147 -10 0 -19 -4 -19 -9z"/>
<path d="M510 446 c0 -159 1 -166 20 -166 18 0 20 7 20 60 0 44 4 60 14 60 7
0 23 -27 36 -60 18 -49 27 -60 45 -60 l23 0 -26 66 c-17 43 -22 68 -15 72 19
13 33 51 33 91 0 58 -31 89 -97 97 l-53 7 0 -167z m101 95 c20 -52 -17 -127
-51 -106 -10 6 -14 128 -4 137 12 13 46 -6 55 -31z"/>
<path d="M723 514 c-12 -19 -17 -47 -17 -104 0 -101 17 -130 74 -130 40 0 60
18 60 54 0 23 -28 19 -35 -5 -5 -14 -14 -19 -28 -17 -18 2 -23 11 -25 46 l-3
42 45 0 46 0 0 54 c0 65 -16 86 -65 86 -26 0 -39 -6 -52 -26z m80 -31 c7 -38
-1 -53 -29 -53 -21 0 -24 5 -24 33 0 38 6 47 31 47 10 0 19 -10 22 -27z"/>
<path d="M906 518 c-12 -16 -16 -47 -16 -108 0 -103 14 -130 64 -130 35 0 49
11 60 48 6 18 3 22 -12 22 -12 0 -22 -9 -25 -21 -4 -13 -12 -20 -24 -17 -16 3
-18 14 -18 98 0 88 1 95 20 95 13 0 21 -8 23 -22 4 -26 30 -31 38 -8 4 8 -1
26 -10 40 -22 33 -78 35 -100 3z"/>
<path d="M1060 410 l0 -130 25 0 25 0 0 130 0 130 -25 0 -25 0 0 -130z"/>
<path d="M1160 365 l0 -175 25 0 c23 0 25 3 25 48 l0 48 33 -4 c52 -6 62 15
62 128 0 104 -10 130 -49 130 -12 0 -28 -6 -35 -12 -11 -10 -14 -10 -18 0 -3
6 -13 12 -24 12 -18 0 -19 -9 -19 -175z m95 45 c0 -88 -1 -95 -20 -95 -18 0
-20 8 -23 84 -3 96 1 114 25 109 16 -3 18 -16 18 -98z"/>
<path d="M1374 519 c-26 -29 -32 -150 -10 -202 14 -34 18 -37 55 -37 40 0 71
25 71 57 0 21 -37 15 -43 -7 -12 -46 -57 -6 -57 50 0 15 9 19 48 22 l47 3 3
43 c4 59 -18 92 -62 92 -21 0 -40 -8 -52 -21z m74 -51 c3 -36 2 -38 -27 -38
-33 0 -34 2 -25 49 5 25 11 31 28 29 16 -2 22 -11 24 -40z"/>
</g>
</svg>
